<?xml version="1.0" encoding="utf-8"?>
<!-- Generator: Adobe Illustrator 15.1.0, SVG Export Plug-In . SVG Version: 6.00 Build 0)  -->
<!DOCTYPE svg PUBLIC "-//W3C//DTD SVG 1.1//EN" "http://www.w3.org/Graphics/SVG/1.1/DTD/svg11.dtd">
<svg version="1.1" id="Layer_1" xmlns="http://www.w3.org/2000/svg" xmlns:xlink="http://www.w3.org/1999/xlink" x="0px" y="0px"
	 width="450px" height="226.8px" viewBox="0 0 450 226.8" enable-background="new 0 0 450 226.8" xml:space="preserve">
<g>
	<g>
		<path fill="#005881" d="M63.57,167.731c1.708,1.656,2.562,3.791,2.562,6.401c0,2.612-0.854,4.745-2.562,6.402
			c-1.667,1.616-3.752,2.425-6.253,2.425c-2.656,0-4.821-0.885-6.497-2.654c-1.562-1.666-2.344-3.678-2.344-6.039
			c0-2.604,0.817-4.74,2.453-6.414c1.652-1.698,3.781-2.547,6.388-2.547C59.825,165.306,61.91,166.114,63.57,167.731z
			 M61.148,178.808c0.373-1.195,0.559-2.754,0.559-4.675c0-2.64-0.395-4.63-1.185-5.97c-0.789-1.34-1.859-2.01-3.211-2.01
			c-1.879,0-3.166,1.117-3.862,3.354c-0.365,1.188-0.546,2.729-0.546,4.626c0,1.93,0.186,3.487,0.559,4.675
			c0.688,2.203,1.971,3.306,3.85,3.306C59.172,182.113,60.452,181.011,61.148,178.808z"/>
		<path fill="#005881" d="M67.431,187.009c0.508-0.055,0.854-0.176,1.04-0.361s0.278-0.536,0.278-1.051v-12.57
			c0-0.51-0.091-0.855-0.272-1.035c-0.182-0.18-0.53-0.305-1.046-0.377v-0.612h4.802v1.687c0.337-0.57,0.667-0.99,0.989-1.26
			c0.579-0.473,1.319-0.709,2.219-0.709c1.295,0,2.371,0.488,3.228,1.467c0.856,0.979,1.285,2.438,1.285,4.377
			c0,1.803-0.461,3.295-1.384,4.48c-0.923,1.184-2.044,1.775-3.366,1.775c-0.677,0-1.317-0.195-1.921-0.587
			c-0.323-0.208-0.658-0.503-1.003-0.888v2.119c0.008,1.126,0.016,1.759,0.024,1.898c0.056,0.645,0.221,1.086,0.497,1.324
			s0.738,0.377,1.386,0.417v0.519h-6.757V187.009z M76.028,179.671c0.169-0.654,0.253-1.596,0.253-2.824
			c0-1.422-0.129-2.556-0.386-3.4c-0.258-0.844-0.779-1.268-1.566-1.268c-0.531,0-1.005,0.234-1.422,0.703
			c-0.418,0.47-0.627,0.809-0.627,1.019v6.038c0,0.242,0.199,0.556,0.597,0.939c0.397,0.385,0.845,0.576,1.344,0.576
			C75.112,181.454,75.715,180.86,76.028,179.671z"/>
		<path fill="#005881" d="M82.731,172.305c1.018-1.056,2.246-1.585,3.683-1.585c0.82,0,1.591,0.215,2.313,0.645
			c0.723,0.43,1.279,1.024,1.668,1.785c0.292,0.575,0.495,1.32,0.608,2.236c0.057,0.429,0.085,0.757,0.085,0.983h-6.356
			c0.056,1.001,0.217,1.867,0.482,2.599c0.482,1.375,1.329,2.062,2.543,2.062c0.578,0,1.124-0.183,1.639-0.549
			c0.313-0.219,0.703-0.59,1.169-1.111l0.57,0.354c-0.767,1.258-1.655,2.132-2.663,2.623c-0.653,0.313-1.403,0.472-2.25,0.472
			c-1.218,0-2.36-0.482-3.424-1.445c-1.065-0.964-1.597-2.503-1.597-4.617C81.204,174.846,81.712,173.362,82.731,172.305z
			 M88.077,175.475c-0.017-1.468-0.132-2.495-0.346-3.079s-0.641-0.875-1.281-0.875c-0.658,0-1.107,0.336-1.35,1.01
			s-0.38,1.654-0.413,2.944H88.077z"/>
		<path fill="#005881" d="M91.996,181.878c0.452-0.057,0.784-0.18,0.998-0.371c0.213-0.189,0.321-0.568,0.321-1.136v-7.345
			c0-0.494-0.087-0.838-0.26-1.029c-0.174-0.191-0.526-0.318-1.058-0.383v-0.612h4.802v1.813c0.392-0.605,0.89-1.105,1.494-1.502
			c0.604-0.395,1.274-0.594,2.01-0.594c1.056,0,1.874,0.275,2.453,0.826s0.87,1.52,0.87,2.904v6.016
			c0,0.561,0.094,0.922,0.282,1.083c0.188,0.163,0.502,0.272,0.942,0.329v0.611h-5.877v-0.611c0.433-0.088,0.728-0.209,0.886-0.361
			c0.157-0.15,0.237-0.495,0.237-1.032v-6.028c0-0.566-0.055-0.992-0.166-1.275c-0.189-0.511-0.563-0.766-1.122-0.766
			c-0.417,0-0.802,0.155-1.152,0.467c-0.351,0.312-0.621,0.627-0.809,0.941v6.661c0,0.537,0.079,0.882,0.236,1.032
			c0.158,0.152,0.454,0.273,0.887,0.361v0.611h-5.972V181.878z"/>
		<path fill="#005881" d="M114.722,167.966c1.667-1.742,3.794-2.613,6.385-2.613c1.037,0,2.071,0.196,3.101,0.588
			c1.029,0.393,1.671,0.589,1.924,0.589c0.269,0,0.486-0.097,0.649-0.29c0.164-0.195,0.298-0.49,0.405-0.887h0.612v5.838h-0.612
			c-0.602-1.26-1.216-2.254-1.841-2.98c-1.171-1.34-2.497-2.01-3.976-2.01c-1.61,0-2.785,0.695-3.525,2.084
			c-0.74,1.391-1.109,3.346-1.109,5.866c0,2.069,0.341,3.913,1.025,5.532c0.684,1.621,2.004,2.431,3.962,2.431
			c1.059,0,1.771-0.22,2.136-0.66c0.21-0.247,0.315-0.623,0.315-1.128v-2.59c0-0.781-0.229-1.294-0.687-1.537
			c-0.297-0.152-0.9-0.236-1.808-0.252v-0.613h8.521v0.613c-0.855,0.032-1.423,0.207-1.701,0.523
			c-0.279,0.316-0.418,0.911-0.418,1.783v3.145c-0.553,0.348-1.446,0.695-2.68,1.043c-1.234,0.346-2.614,0.52-4.14,0.52
			c-2.769,0-4.981-0.871-6.638-2.612c-1.543-1.628-2.314-3.669-2.314-6.124C112.308,171.744,113.113,169.659,114.722,167.966z"/>
		<path fill="#005881" d="M132.743,172.305c1.018-1.056,2.246-1.585,3.684-1.585c0.819,0,1.591,0.215,2.313,0.645
			s1.279,1.024,1.668,1.785c0.292,0.575,0.494,1.32,0.608,2.236c0.057,0.429,0.085,0.757,0.085,0.983h-6.356
			c0.056,1.001,0.217,1.867,0.482,2.599c0.481,1.375,1.329,2.062,2.543,2.062c0.578,0,1.124-0.183,1.639-0.549
			c0.313-0.219,0.702-0.59,1.169-1.111l0.57,0.354c-0.767,1.258-1.654,2.132-2.662,2.623c-0.653,0.313-1.404,0.472-2.25,0.472
			c-1.218,0-2.36-0.482-3.424-1.445c-1.065-0.964-1.597-2.503-1.597-4.617C131.215,174.846,131.724,173.362,132.743,172.305z
			 M138.089,175.475c-0.017-1.468-0.132-2.495-0.346-3.079s-0.641-0.875-1.282-0.875c-0.658,0-1.107,0.336-1.35,1.01
			c-0.243,0.674-0.38,1.654-0.413,2.944H138.089z"/>
		<path fill="#005881" d="M143.744,172.45c1.063-1.154,2.399-1.73,4.008-1.73c1.64,0,2.984,0.59,4.032,1.768
			c1.047,1.178,1.571,2.605,1.571,4.282c0,1.653-0.518,3.075-1.552,4.265c-1.035,1.191-2.385,1.785-4.05,1.785
			c-1.617,0-2.955-0.578-4.015-1.736c-1.059-1.158-1.588-2.596-1.588-4.313C142.149,175.044,142.68,173.603,143.744,172.45z
			 M146.085,180.41c0.28,1.073,0.835,1.608,1.667,1.608c0.792,0,1.311-0.41,1.559-1.233c0.247-0.822,0.372-2.161,0.372-4.016
			c0-1.847-0.13-3.183-0.39-4.009c-0.26-0.828-0.77-1.24-1.529-1.24c-0.832,0-1.387,0.535-1.667,1.608
			c-0.184,0.718-0.276,1.931-0.276,3.641C145.821,178.503,145.909,179.718,146.085,180.41z"/>
		<path fill="#005881" d="M154.526,178.724h0.683c0.24,1.205,0.688,2.056,1.345,2.552c0.657,0.495,1.33,0.743,2.019,0.743
			c0.632,0,1.097-0.145,1.393-0.436c0.296-0.289,0.445-0.672,0.445-1.146c0-0.449-0.158-0.834-0.475-1.152
			c-0.174-0.172-0.456-0.355-0.848-0.551l-1.821-0.902c-0.958-0.48-1.646-1-2.061-1.561c-0.423-0.562-0.635-1.225-0.635-1.988
			c0-0.969,0.335-1.804,1.005-2.507c0.669-0.704,1.606-1.056,2.809-1.056c0.524,0,1.081,0.086,1.67,0.259
			c0.589,0.173,0.957,0.259,1.102,0.259c0.202,0,0.344-0.045,0.43-0.136c0.084-0.091,0.155-0.218,0.212-0.382h0.588v3.578H161.8
			c-0.238-0.838-0.629-1.509-1.171-2.017c-0.542-0.507-1.175-0.761-1.897-0.761c-0.559,0-0.976,0.155-1.25,0.466
			c-0.275,0.311-0.413,0.646-0.413,1.005c0,0.295,0.118,0.59,0.356,0.883c0.229,0.304,0.669,0.613,1.323,0.93l1.354,0.656
			c0.838,0.406,1.451,0.799,1.838,1.18c0.644,0.648,0.967,1.448,0.967,2.396c0,0.924-0.332,1.786-0.994,2.585
			c-0.663,0.799-1.656,1.198-2.98,1.198c-0.33,0-0.661-0.035-0.994-0.102c-0.333-0.068-0.744-0.186-1.234-0.354l-0.421-0.144
			c-0.153-0.056-0.247-0.087-0.283-0.095c-0.037-0.008-0.083-0.013-0.138-0.013c-0.137,0-0.256,0.054-0.356,0.161
			s-0.215,0.289-0.343,0.545h-0.589L154.526,178.724z"/>
		<path fill="#005881" d="M164.006,187.009c0.508-0.055,0.855-0.176,1.04-0.361c0.186-0.186,0.278-0.536,0.278-1.051v-12.57
			c0-0.51-0.091-0.855-0.272-1.035c-0.182-0.18-0.53-0.305-1.046-0.377v-0.612h4.802v1.687c0.337-0.57,0.667-0.99,0.989-1.26
			c0.579-0.473,1.319-0.709,2.22-0.709c1.294,0,2.371,0.488,3.227,1.467s1.285,2.438,1.285,4.377c0,1.803-0.461,3.295-1.384,4.48
			c-0.922,1.184-2.044,1.775-3.366,1.775c-0.677,0-1.317-0.195-1.921-0.587c-0.323-0.208-0.658-0.503-1.003-0.888v2.119
			c0.008,1.126,0.017,1.759,0.024,1.898c0.056,0.645,0.222,1.086,0.497,1.324c0.276,0.238,0.738,0.377,1.386,0.417v0.519h-6.757
			V187.009z M172.604,179.671c0.168-0.654,0.253-1.596,0.253-2.824c0-1.422-0.129-2.556-0.386-3.4
			c-0.257-0.844-0.779-1.268-1.566-1.268c-0.531,0-1.005,0.234-1.423,0.703c-0.418,0.47-0.627,0.809-0.627,1.019v6.038
			c0,0.242,0.199,0.556,0.597,0.939c0.397,0.385,0.845,0.576,1.344,0.576C171.688,181.454,172.291,180.86,172.604,179.671z"/>
		<path fill="#005881" d="M179.442,177.464c1.078-0.659,2.767-1.322,5.069-1.989v-1.802c0-0.734-0.155-1.275-0.465-1.627
			c-0.31-0.35-0.858-0.525-1.646-0.525c-0.443,0-0.807,0.082-1.094,0.248c-0.287,0.164-0.431,0.373-0.431,0.623
			c0,0.096,0.017,0.177,0.049,0.241c0.032,0.065,0.081,0.134,0.146,0.206l0.146,0.168c0.113,0.139,0.204,0.289,0.272,0.455
			c0.068,0.165,0.103,0.34,0.103,0.525c0,0.468-0.157,0.828-0.47,1.082c-0.313,0.254-0.678,0.381-1.093,0.381
			c-0.48,0-0.889-0.141-1.227-0.422c-0.337-0.281-0.506-0.688-0.506-1.219c0-0.949,0.449-1.701,1.348-2.258
			c0.898-0.555,2.003-0.832,3.315-0.832c1.408,0,2.585,0.271,3.533,0.813c0.938,0.551,1.409,1.563,1.409,3.036v6.023
			c0,0.179,0.046,0.33,0.141,0.456c0.094,0.126,0.198,0.188,0.313,0.188c0.098,0,0.186-0.018,0.264-0.055
			c0.078-0.037,0.199-0.137,0.362-0.298l0.38,0.522c-0.488,0.568-1.029,0.967-1.624,1.193c-0.374,0.145-0.77,0.219-1.184,0.219
			c-0.741,0-1.282-0.217-1.624-0.648c-0.196-0.244-0.338-0.607-0.428-1.09c-0.688,0.694-1.464,1.184-2.33,1.469
			c-0.526,0.18-1.044,0.27-1.553,0.27c-0.68,0-1.315-0.218-1.906-0.652c-0.591-0.436-0.886-1.112-0.886-2.031
			C177.826,179.013,178.364,178.123,179.442,177.464z M183.785,180.663c0.191-0.146,0.417-0.375,0.679-0.686v-3.655
			c-0.652,0.163-1.223,0.42-1.715,0.771c-0.834,0.596-1.251,1.354-1.251,2.273c0,0.547,0.121,0.961,0.364,1.242
			c0.242,0.281,0.514,0.422,0.816,0.422C183.075,181.03,183.444,180.908,183.785,180.663z"/>
		<path fill="#005881" d="M190.015,172.085v-0.683c0.218-0.202,0.488-0.44,0.812-0.714c0.428-0.396,0.832-0.804,1.212-1.225
			c0.751-0.823,1.435-1.707,2.048-2.652h0.636v4.19h2.401v1.083h-2.401v7.518c0,0.35,0.052,0.643,0.157,0.879
			c0.162,0.365,0.428,0.549,0.799,0.549c0.322,0,0.592-0.113,0.81-0.34s0.436-0.539,0.653-0.939l0.594,0.291
			c-0.29,0.676-0.637,1.228-1.04,1.654c-0.71,0.748-1.577,1.123-2.602,1.123c-0.581,0-1.089-0.109-1.524-0.328
			c-0.84-0.421-1.268-1.188-1.283-2.303v-8.104H190.015z"/>
		<path fill="#005881" d="M198.241,181.878c0.424-0.062,0.713-0.168,0.871-0.316c0.234-0.221,0.353-0.617,0.353-1.19v-7.345
			c0-0.494-0.083-0.832-0.247-1.012c-0.165-0.18-0.49-0.312-0.977-0.4v-0.612h4.754v9.464c0,0.544,0.083,0.893,0.248,1.047
			c0.166,0.154,0.475,0.275,0.93,0.365v0.611h-5.932V181.878z M199.843,165.917c0.377-0.377,0.834-0.564,1.369-0.564
			c0.528,0,0.98,0.188,1.359,0.564c0.377,0.377,0.566,0.832,0.566,1.365c0,0.535-0.189,0.99-0.566,1.367
			c-0.379,0.376-0.831,0.563-1.359,0.563c-0.535,0-0.992-0.188-1.369-0.563c-0.378-0.377-0.566-0.832-0.566-1.367
			C199.276,166.749,199.465,166.294,199.843,165.917z"/>
		<path fill="#005881" d="M206.758,177.464c1.077-0.659,2.768-1.322,5.069-1.989v-1.802c0-0.734-0.155-1.275-0.465-1.627
			c-0.31-0.35-0.858-0.525-1.646-0.525c-0.442,0-0.808,0.082-1.095,0.248c-0.286,0.164-0.43,0.373-0.43,0.623
			c0,0.096,0.016,0.177,0.049,0.241c0.032,0.065,0.08,0.134,0.146,0.206l0.146,0.168c0.113,0.139,0.203,0.289,0.273,0.455
			c0.068,0.165,0.103,0.34,0.103,0.525c0,0.468-0.157,0.828-0.47,1.082c-0.314,0.254-0.678,0.381-1.093,0.381
			c-0.48,0-0.89-0.141-1.228-0.422s-0.506-0.688-0.506-1.219c0-0.949,0.449-1.701,1.348-2.258c0.898-0.555,2.004-0.832,3.314-0.832
			c1.408,0,2.586,0.271,3.533,0.813c0.939,0.551,1.409,1.563,1.409,3.036v6.023c0,0.179,0.046,0.33,0.141,0.456
			s0.198,0.188,0.313,0.188c0.098,0,0.186-0.018,0.264-0.055s0.198-0.137,0.361-0.298l0.381,0.522
			c-0.488,0.568-1.03,0.967-1.625,1.193c-0.374,0.145-0.77,0.219-1.184,0.219c-0.741,0-1.283-0.217-1.624-0.648
			c-0.196-0.244-0.337-0.607-0.427-1.09c-0.688,0.694-1.465,1.184-2.331,1.469c-0.526,0.18-1.044,0.27-1.553,0.27
			c-0.68,0-1.315-0.218-1.906-0.652c-0.591-0.436-0.886-1.112-0.886-2.031C205.142,179.013,205.681,178.123,206.758,177.464z
			 M211.101,180.663c0.191-0.146,0.418-0.375,0.68-0.686v-3.655c-0.652,0.163-1.224,0.42-1.716,0.771
			c-0.834,0.596-1.251,1.354-1.251,2.273c0,0.547,0.121,0.961,0.363,1.242s0.515,0.422,0.816,0.422
			C210.391,181.03,210.76,180.908,211.101,180.663z"/>
		<path fill="#005881" d="M217.236,181.878c0.444-0.109,0.761-0.251,0.946-0.425c0.186-0.173,0.277-0.534,0.277-1.082v-12.665
			c0-0.515-0.086-0.851-0.26-1.01c-0.174-0.158-0.494-0.292-0.964-0.402v-0.611h4.757v14.688c0,0.544,0.09,0.899,0.27,1.067
			c0.18,0.167,0.498,0.314,0.956,0.439v0.611h-5.982V181.878z"/>
		<path fill="#005881" d="M242.602,165.94c1.066,0.393,1.661,0.589,1.783,0.589c0.318,0,0.572-0.126,0.764-0.38
			c0.191-0.252,0.312-0.518,0.36-0.797h0.612v5.838h-0.612c-0.6-1.26-1.211-2.254-1.835-2.98c-1.167-1.34-2.488-2.01-3.963-2.01
			c-1.669,0-2.854,0.717-3.556,2.15c-0.701,1.435-1.051,3.359-1.051,5.775c0,1.777,0.206,3.24,0.618,4.387
			c0.769,2.15,2.196,3.224,4.283,3.224c1.277,0,2.467-0.354,3.566-1.066c0.631-0.412,1.375-1.07,2.232-1.976l0.74,0.594
			c-0.973,1.09-1.826,1.879-2.563,2.367c-1.312,0.869-2.77,1.305-4.374,1.305c-2.454,0-4.512-0.727-6.171-2.184
			c-1.839-1.609-2.758-3.778-2.758-6.504c0-2.703,0.884-4.891,2.651-6.566c1.661-1.568,3.696-2.354,6.107-2.354
			C240.479,165.353,241.534,165.549,242.602,165.94z"/>
		<path fill="#005881" d="M249.797,172.45c1.062-1.154,2.398-1.73,4.007-1.73c1.641,0,2.985,0.59,4.032,1.768s1.57,2.605,1.57,4.282
			c0,1.653-0.518,3.075-1.552,4.265c-1.035,1.191-2.385,1.785-4.051,1.785c-1.616,0-2.954-0.578-4.014-1.736
			s-1.589-2.596-1.589-4.313C248.201,175.044,248.732,173.603,249.797,172.45z M252.138,180.41c0.28,1.073,0.835,1.608,1.666,1.608
			c0.792,0,1.312-0.41,1.56-1.233c0.247-0.822,0.371-2.161,0.371-4.016c0-1.847-0.13-3.183-0.39-4.009
			c-0.26-0.828-0.77-1.24-1.528-1.24c-0.832,0-1.387,0.535-1.667,1.608c-0.184,0.718-0.275,1.931-0.275,3.641
			C251.874,178.503,251.961,179.718,252.138,180.41z"/>
		<path fill="#005881" d="M260.391,181.878c0.451-0.057,0.784-0.18,0.997-0.371c0.214-0.189,0.321-0.568,0.321-1.136v-7.345
			c0-0.494-0.087-0.838-0.261-1.029s-0.526-0.318-1.058-0.383v-0.612h4.802v1.813c0.392-0.605,0.89-1.105,1.493-1.502
			c0.604-0.395,1.274-0.594,2.01-0.594c1.056,0,1.874,0.275,2.454,0.826c0.579,0.551,0.87,1.52,0.87,2.904v6.016
			c0,0.561,0.093,0.922,0.281,1.083c0.188,0.163,0.503,0.272,0.942,0.329v0.611h-5.878v-0.611c0.433-0.088,0.729-0.209,0.886-0.361
			c0.158-0.15,0.237-0.495,0.237-1.032v-6.028c0-0.566-0.056-0.992-0.166-1.275c-0.188-0.511-0.562-0.766-1.121-0.766
			c-0.418,0-0.802,0.155-1.152,0.467c-0.351,0.312-0.621,0.627-0.81,0.941v6.661c0,0.537,0.079,0.882,0.236,1.032
			c0.157,0.152,0.453,0.273,0.887,0.361v0.611h-5.972V181.878z"/>
		<path fill="#005881" d="M274.304,178.724h0.683c0.24,1.205,0.689,2.056,1.346,2.552c0.657,0.495,1.33,0.743,2.019,0.743
			c0.633,0,1.097-0.145,1.394-0.436c0.297-0.289,0.445-0.672,0.445-1.146c0-0.449-0.158-0.834-0.475-1.152
			c-0.174-0.172-0.456-0.355-0.848-0.551l-1.82-0.902c-0.959-0.48-1.646-1-2.061-1.561c-0.424-0.562-0.635-1.225-0.635-1.988
			c0-0.969,0.334-1.804,1.005-2.507c0.669-0.704,1.605-1.056,2.809-1.056c0.523,0,1.08,0.086,1.67,0.259
			c0.589,0.173,0.956,0.259,1.102,0.259c0.202,0,0.345-0.045,0.43-0.136s0.155-0.218,0.212-0.382h0.589v3.578h-0.589
			c-0.238-0.838-0.629-1.509-1.171-2.017c-0.542-0.507-1.175-0.761-1.897-0.761c-0.559,0-0.976,0.155-1.251,0.466
			c-0.274,0.311-0.412,0.646-0.412,1.005c0,0.295,0.118,0.59,0.355,0.883c0.229,0.304,0.67,0.613,1.323,0.93l1.354,0.656
			c0.838,0.406,1.45,0.799,1.837,1.18c0.645,0.648,0.968,1.448,0.968,2.396c0,0.924-0.332,1.786-0.994,2.585
			s-1.656,1.198-2.98,1.198c-0.33,0-0.661-0.035-0.994-0.102c-0.333-0.068-0.744-0.186-1.234-0.354l-0.421-0.144
			c-0.153-0.056-0.248-0.087-0.283-0.095c-0.037-0.008-0.083-0.013-0.139-0.013c-0.137,0-0.256,0.054-0.356,0.161
			c-0.1,0.107-0.215,0.289-0.343,0.545h-0.588L274.304,178.724z"/>
		<path fill="#005881" d="M285.426,172.45c1.063-1.154,2.399-1.73,4.008-1.73c1.641,0,2.984,0.59,4.032,1.768
			c1.047,1.178,1.571,2.605,1.571,4.282c0,1.653-0.519,3.075-1.553,4.265c-1.035,1.191-2.385,1.785-4.051,1.785
			c-1.616,0-2.955-0.578-4.014-1.736c-1.06-1.158-1.589-2.596-1.589-4.313C283.831,175.044,284.362,173.603,285.426,172.45z
			 M287.768,180.41c0.279,1.073,0.835,1.608,1.666,1.608c0.792,0,1.312-0.41,1.56-1.233c0.247-0.822,0.371-2.161,0.371-4.016
			c0-1.847-0.13-3.183-0.39-4.009c-0.26-0.828-0.77-1.24-1.529-1.24c-0.831,0-1.387,0.535-1.666,1.608
			c-0.184,0.718-0.275,1.931-0.275,3.641C287.504,178.503,287.591,179.718,287.768,180.41z"/>
		<path fill="#005881" d="M296.021,181.878c0.475-0.057,0.806-0.17,0.991-0.338c0.186-0.17,0.286-0.496,0.303-0.98l0.023-0.732
			v-6.801c0-0.51-0.089-0.857-0.266-1.041c-0.178-0.184-0.528-0.307-1.052-0.371v-0.612h4.802v1.964
			c0.518-0.688,1.032-1.234,1.543-1.639c0.51-0.405,1.1-0.607,1.769-0.607c0.502,0,0.954,0.167,1.357,0.501
			c0.402,0.334,0.604,0.821,0.604,1.464c0,0.496-0.144,0.904-0.431,1.226s-0.661,0.481-1.122,0.481
			c-0.525,0-0.979-0.259-1.363-0.776c-0.385-0.519-0.653-0.776-0.807-0.776c-0.332,0-0.665,0.215-1,0.643
			c-0.336,0.429-0.504,1.021-0.504,1.781v4.685c0,0.815,0.116,1.325,0.35,1.528c0.232,0.205,0.697,0.339,1.393,0.402v0.611h-6.591
			V181.878z"/>
		<path fill="#005881" d="M307.002,172.085v-0.683c0.218-0.202,0.488-0.44,0.812-0.714c0.429-0.396,0.832-0.804,1.213-1.225
			c0.751-0.823,1.434-1.707,2.048-2.652h0.636v4.19h2.401v1.083h-2.401v7.518c0,0.35,0.052,0.643,0.157,0.879
			c0.161,0.365,0.428,0.549,0.798,0.549c0.322,0,0.593-0.113,0.811-0.34s0.436-0.539,0.653-0.939l0.594,0.291
			c-0.29,0.676-0.638,1.228-1.041,1.654c-0.709,0.748-1.577,1.123-2.601,1.123c-0.581,0-1.09-0.109-1.525-0.328
			c-0.839-0.421-1.267-1.188-1.283-2.303v-8.104H307.002z"/>
		<path fill="#005881" d="M315.227,181.878c0.424-0.062,0.714-0.168,0.871-0.316c0.235-0.221,0.354-0.617,0.354-1.19v-7.345
			c0-0.494-0.083-0.832-0.247-1.012c-0.165-0.18-0.491-0.312-0.978-0.4v-0.612h4.756v9.464c0,0.544,0.082,0.893,0.248,1.047
			c0.164,0.154,0.474,0.275,0.929,0.365v0.611h-5.933V181.878z M316.829,165.917c0.377-0.377,0.834-0.564,1.37-0.564
			c0.527,0,0.979,0.188,1.357,0.564s0.566,0.832,0.566,1.365c0,0.535-0.188,0.99-0.566,1.367c-0.378,0.376-0.83,0.563-1.357,0.563
			c-0.536,0-0.993-0.188-1.37-0.563c-0.378-0.377-0.566-0.832-0.566-1.367C316.263,166.749,316.451,166.294,316.829,165.917z"/>
		<path fill="#005881" d="M326.695,171.002v8.405c0,0.5,0.059,0.867,0.178,1.101c0.206,0.411,0.612,0.616,1.221,0.616
			c0.387,0,0.767-0.119,1.139-0.359c0.213-0.131,0.481-0.352,0.806-0.661v-7.077c0-0.51-0.104-0.867-0.31-1.07
			s-0.621-0.318-1.244-0.342v-0.612h4.943v8.945c0,0.507,0.096,0.856,0.287,1.051s0.566,0.315,1.126,0.362v0.611
			c-1.515,0.148-2.468,0.257-2.862,0.326c-0.394,0.068-1.025,0.242-1.894,0.521v-1.648c-0.595,0.514-1.088,0.875-1.479,1.088
			c-0.685,0.373-1.398,0.561-2.14,0.561c-0.808,0-1.56-0.256-2.256-0.768c-0.697-0.512-1.046-1.42-1.046-2.729v-6.297
			c0-0.515-0.084-0.852-0.252-1.01s-0.492-0.292-0.972-0.402v-0.612H326.695z"/>
		<path fill="#005881" d="M335.666,181.878c0.442-0.062,0.748-0.162,0.914-0.3c0.27-0.217,0.404-0.619,0.404-1.207v-7.345
			c0-0.51-0.092-0.857-0.273-1.041c-0.183-0.184-0.531-0.307-1.045-0.371v-0.612h4.802v1.757c0.414-0.533,0.815-0.945,1.205-1.24
			c0.723-0.533,1.526-0.799,2.41-0.799c0.998,0,1.773,0.23,2.325,0.69c0.308,0.263,0.6,0.692,0.876,1.286h0.174
			c0.47-0.562,0.92-0.988,1.351-1.273c0.682-0.469,1.424-0.703,2.227-0.703c0.876,0,1.648,0.279,2.317,0.838
			c0.67,0.56,1.004,1.443,1.004,2.649v6.259c0,0.576,0.09,0.943,0.271,1.102c0.18,0.158,0.498,0.262,0.953,0.311v0.611h-5.876
			v-0.611c0.453-0.064,0.77-0.176,0.948-0.334c0.178-0.156,0.267-0.514,0.267-1.071v-6.02c0-0.647-0.096-1.148-0.285-1.505
			c-0.19-0.355-0.553-0.533-1.087-0.533c-0.43,0-0.88,0.195-1.354,0.588c-0.474,0.393-0.71,0.666-0.71,0.82v6.649
			c0,0.542,0.081,0.889,0.242,1.042c0.162,0.153,0.465,0.275,0.911,0.363v0.611h-5.895v-0.611c0.436-0.057,0.746-0.164,0.931-0.32
			c0.186-0.158,0.279-0.52,0.279-1.085v-6.02c0-0.63-0.089-1.128-0.267-1.492s-0.545-0.546-1.102-0.546
			c-0.508,0-0.98,0.199-1.416,0.6c-0.436,0.399-0.652,0.652-0.652,0.758v6.7c0,0.542,0.076,0.889,0.229,1.042
			c0.153,0.153,0.457,0.275,0.908,0.363v0.611h-5.986V181.878z"/>
		<path fill="#005881" d="M356.962,186.44c0.751-0.521,1.316-0.979,1.696-1.371c0.67-0.678,1.006-1.318,1.006-1.922
			c0-0.172-0.041-0.311-0.122-0.416c-0.089-0.1-0.214-0.147-0.375-0.147c-0.081,0-0.183,0.015-0.303,0.047
			c-0.121,0.03-0.206,0.048-0.255,0.048c-0.492,0-0.919-0.176-1.278-0.525s-0.539-0.82-0.539-1.414c0-0.625,0.188-1.134,0.562-1.524
			c0.375-0.39,0.866-0.585,1.472-0.585c0.743,0,1.352,0.262,1.823,0.784c0.473,0.522,0.709,1.223,0.709,2.099
			c0,1.338-0.533,2.555-1.599,3.65c-0.582,0.584-1.417,1.191-2.508,1.824L356.962,186.44z"/>
		<path fill="#005881" d="M368.505,181.878c0.7-0.016,1.204-0.104,1.51-0.262c0.5-0.265,0.75-0.773,0.75-1.527v-12.006
			c0-0.748-0.237-1.25-0.713-1.505c-0.291-0.156-0.807-0.251-1.547-0.284v-0.611h8.71v0.611c-0.785,0.033-1.324,0.123-1.619,0.271
			c-0.49,0.256-0.735,0.762-0.735,1.518v12.006c0,0.712,0.196,1.188,0.589,1.428c0.392,0.241,0.98,0.361,1.766,0.361v0.611h-8.71
			V181.878z"/>
		<path fill="#005881" d="M378.079,181.878c0.451-0.057,0.784-0.18,0.997-0.371c0.214-0.189,0.321-0.568,0.321-1.136v-7.345
			c0-0.494-0.087-0.838-0.261-1.029s-0.525-0.318-1.058-0.383v-0.612h4.802v1.813c0.392-0.605,0.89-1.105,1.494-1.502
			c0.604-0.395,1.273-0.594,2.01-0.594c1.055,0,1.873,0.275,2.453,0.826c0.579,0.551,0.87,1.52,0.87,2.904v6.016
			c0,0.561,0.094,0.922,0.281,1.083c0.188,0.163,0.503,0.272,0.942,0.329v0.611h-5.877v-0.611c0.432-0.088,0.728-0.209,0.886-0.361
			c0.157-0.15,0.236-0.495,0.236-1.032v-6.028c0-0.566-0.055-0.992-0.165-1.275c-0.189-0.511-0.563-0.766-1.122-0.766
			c-0.418,0-0.802,0.155-1.152,0.467c-0.351,0.312-0.621,0.627-0.809,0.941v6.661c0,0.537,0.078,0.882,0.235,1.032
			c0.158,0.152,0.453,0.273,0.887,0.361v0.611h-5.972V181.878z"/>
		<path fill="#005881" d="M400.504,171.485c0.76,0.512,1.141,1.169,1.141,1.972c0,0.431-0.153,0.804-0.459,1.12
			c-0.305,0.316-0.693,0.475-1.165,0.475c-0.313,0-0.588-0.072-0.82-0.219c-0.442-0.258-0.663-0.725-0.663-1.402
			c0-0.072,0.004-0.18,0.012-0.32s0.013-0.292,0.013-0.453c0-0.436-0.1-0.733-0.298-0.895c-0.207-0.162-0.441-0.242-0.703-0.242
			c-0.755,0-1.29,0.42-1.607,1.26c-0.318,0.842-0.477,1.805-0.477,2.891c0,1.545,0.304,2.84,0.912,3.885
			c0.607,1.047,1.428,1.568,2.46,1.568c0.647,0,1.2-0.145,1.656-0.434c0.271-0.168,0.607-0.478,1.008-0.928l0.461,0.422
			c-0.803,1.12-1.743,1.89-2.82,2.309c-0.57,0.217-1.177,0.326-1.819,0.326c-1.584,0-2.878-0.568-3.882-1.706
			c-1.005-1.138-1.507-2.524-1.507-4.162c0-1.726,0.533-3.196,1.599-4.41c1.064-1.214,2.486-1.821,4.264-1.821
			C398.846,170.72,399.744,170.976,400.504,171.485z"/>
		<path fill="#005881" d="M403.868,179.241c0.407-0.408,0.902-0.611,1.483-0.611c0.582,0,1.076,0.203,1.483,0.611
			s0.612,0.902,0.612,1.482c0,0.582-0.205,1.076-0.612,1.484c-0.407,0.406-0.901,0.611-1.483,0.611
			c-0.581,0-1.076-0.205-1.483-0.611c-0.407-0.408-0.611-0.902-0.611-1.484C403.257,180.144,403.461,179.649,403.868,179.241z"/>
	</g>
	<path fill="none" stroke="#12678D" stroke-width="3.1438" d="M433.786,199.835c0,6.496-5.275,11.762-11.783,11.762H28.656
		c-6.508,0-11.785-5.266-11.785-11.762V26.764c0-6.496,5.277-11.761,11.785-11.761h393.347c6.508,0,11.783,5.265,11.783,11.761
		V199.835z"/>
	<rect x="377" y="46.5" fill="none" width="42.667" height="44.667"/>
	<text transform="matrix(1 0 0 1 377 70.3672)" fill="#005881" font-family="'TimesNewRomanPS-BoldMT'" font-size="36">®</text>
	<g>
		<rect x="43.5" y="49" fill="none" width="349" height="132"/>
		
			<text transform="matrix(0.9542 0 0 1 43.5005 151.2119)" fill="#005881" font-family="'TimesNewRomanPS-BoldMT'" font-size="154.1679">OGC</text>
	</g>
</g>
</svg>
